<svg width="201" height="201" viewBox="0 0 201 201" fill="none" xmlns="http://www.w3.org/2000/svg">
<path d="M84.7052 144.478C84.7003 144.456 84.4739 143.889 84.4679 143.867C82.8856 138.769 77.2551 135.217 72.1122 135.531C68.4958 135.753 65.5025 137.968 65.4517 139.089C65.4138 139.901 65.8076 140.362 65.8076 140.362C65.9133 140.486 66.1157 140.614 66.5205 140.872C66.716 140.996 66.9393 141.272 67.4119 141.496C67.6552 141.612 67.7519 141.765 67.8317 141.801C68.5386 142.12 69.5606 143.016 69.3213 143.673C69.0601 144.386 67.5306 144.528 66.4448 144.207C65.6491 143.972 65.1376 143.502 64.994 143.366C59.9777 138.655 52.4338 123.201 52.5116 121.906C52.5266 121.661 52.5455 121.363 52.5455 121.363C53.1557 120.109 52.6033 120.39 54.4629 120.735C54.7241 120.784 56.0442 120.819 57.6535 120.836C57.6874 120.836 58.5838 121.164 58.4173 120.735L64.4596 120.124C64.8245 120.087 65.9831 119.942 66.2583 119.699C71.8629 114.757 65.693 111.05 63.9271 110.164C63.6111 110.005 63.2691 109.907 62.9171 109.873C60.2788 109.61 47.4684 108.372 36.7977 107.929C35.3589 107.869 34.1823 106.768 34.0268 105.336C32.9539 95.4459 24.1318 82.8378 8.45573 80.6253C7.74481 80.5246 7.02193 80.6871 6.42368 81.0839C4.0287 82.6703 3.24799 83.9745 3.1742 85.3604C3.15526 85.7214 3.46934 86.0055 3.82829 85.9627C4.72665 85.854 5.55522 85.8839 6.54432 85.8839C18.1294 85.8839 27.5208 96.773 27.5208 109.82C27.5208 122.867 18.1294 133.444 6.54432 133.444C5.23815 133.444 3.9609 133.309 2.72153 133.052C2.3556 132.976 2.02756 133.302 2.1183 133.665C2.32569 134.496 3.01866 135.529 4.12541 137.21C4.43152 137.675 4.46143 138.556 5.0178 138.58C23.6003 139.415 30.2798 122.992 32.8472 119.461C33.1155 119.093 33.4435 119.459 33.9839 119.513L39.9704 120.753C40.6155 120.817 41.0322 120.448 40.9595 121.092L40.7561 122.518C40.6873 123.078 40.5856 123.969 40.5018 125.063C40.2376 128.495 38.5037 151.061 50.4855 159.609C53.1059 161.478 58.185 163.964 63.1125 164.802C63.6829 164.898 64.2741 164.977 64.4875 165.005C68.7141 165.556 71.7991 165.959 74.8232 164.81C76.3517 164.228 77.6439 163.365 80.5006 161.721C84.2087 159.585 87.187 154.891 84.7052 144.478Z" fill="white"/>
<path d="M73.3855 165.241C72.6985 166.016 68.9794 166.908 67.3093 167.932C60.93 171.842 52.375 170.034 46.7356 166.7C42.9566 164.467 40.8937 161.632 39.3083 159.407C33.9092 151.827 32.8273 143.617 32.6828 138.596C32.6828 138.596 24.74 149.746 8.70204 148.371C8.70204 148.371 4.73068 142.72 4.57812 138.596C6.52442 138.564 9.23746 138.338 12.3493 137.479C17.8383 135.963 21.4028 133.347 22.1436 132.792C26.4739 129.543 28.7224 125.857 29.524 124.433C30.6696 122.397 31.3526 120.549 31.7674 119.197C41.5428 119.96 41.2377 120.877 41.2377 120.877C41.111 121.947 40.9645 123.404 40.8698 125.134C40.803 126.349 40.5327 131.909 41.3902 137.984C42.0294 142.512 42.9806 149.247 46.1254 154.175C53.1577 165.197 70.6993 165.24 73.3855 165.241Z" fill="#9EFF00"/>
<path d="M139.251 156.018C138.203 159.303 144.441 160.242 146.892 158.381C150.532 155.618 154.799 151.564 158.102 146.089C163.728 136.767 164.456 127.668 165.061 122.593C165.18 121.588 165.12 120.422 164.725 119.228C164.35 117.958 164.239 117.492 163.665 116.237C163.611 116.119 163.254 115.062 163.665 114.671C164.287 114.078 165.967 114.711 166.936 117.437C167.457 118.901 167.388 120.242 167.348 120.91C167.035 126.093 165.942 132.036 165.414 134.741L165.339 135.129C164.983 136.971 165.831 138.852 167.303 139.444C167.314 139.449 167.325 139.453 167.337 139.458C167.337 139.458 169.587 140.352 172.269 139.764C175.539 139.047 181.236 134.033 183.531 126.187C183.564 126.069 183.605 125.954 183.651 125.842C184.392 123.988 188.544 111.802 183.249 99.5239C183.041 99.0413 182.96 98.4959 182.746 98.0173C180.731 93.5354 175.722 87.9109 170.593 88.7844C165.87 89.589 160.947 96.0561 160.083 102.18C159.779 104.34 159.645 108.721 157.975 109.397C157.697 109.51 157.385 109.528 157.037 109.437C156.76 109.364 156.491 109.301 156.232 109.246C154.594 108.899 153.042 110.254 152.769 112.257C152.666 113.011 152.56 113.787 152.468 114.461C152.163 116.694 155.514 114.833 156.428 116.322C157.342 117.81 154.904 129.532 153.229 129.904C152.811 129.997 152.411 130.043 152.047 130.06C150.861 130.117 149.819 131.043 149.389 132.394L139.251 156.018Z" fill="white"/>
<path d="M183.616 95.4951C189.944 107.652 189.363 116.376 185.609 126.812C185.054 128.357 185.133 129.762 185.898 131.196C186.319 131.987 187.637 132.194 188.249 131.777C189.793 130.723 193.53 126.346 194.012 115.253C194.4 106.313 193.008 97.3307 187.18 92.7811C185.412 91.4021 182.544 93.4371 183.616 95.4951Z" fill="white"/>
<path d="M196.63 103.331C196.295 103.514 196.097 103.898 196.094 104.305C196.08 106.295 197.395 112.056 196.508 116.784C196.308 117.847 196.243 119.886 197.218 120.123C198.242 120.372 200.108 118.948 200.292 117.454C200.874 112.709 200.905 105.765 198.974 104.162C198.955 104.146 197.532 102.841 196.63 103.331Z" fill="white"/>
<path d="M55.1875 43.9028C55.4447 44.5798 53.4825 45.4572 52.7686 45.3416C47.4821 44.4901 34.7793 42.2237 24.5712 31.896C14.0062 21.2073 11.4955 8.87646 10.8195 4.10843C10.7587 3.67969 10.996 3.2659 11.3978 3.10437C15.2346 1.5599 28.9733 -3.18419 43.7151 3.38455C60.804 10.9992 66.9999 26.762 67.8175 32.8592C67.9301 33.7027 66.8303 35.7567 65.3367 35.3838C60.4441 34.1603 56.8935 29.2787 51.4036 26.4489C47.1859 24.2753 43.1398 22.4666 39.3509 20.958C38.3947 20.5772 37.61 21.7896 38.3508 22.5055C40.3888 24.4757 43.2973 26.3881 45.3922 29.165C49.542 34.6699 53.5862 39.6941 55.1875 43.9028Z" fill="white"/>
<path d="M145.209 75.6838C144.016 74.1314 139.906 68.9845 132.939 64.4318C124.391 58.8472 116.383 57.2139 109.684 56.0304C105.41 55.2756 99.4271 54.5069 92.1564 54.5029C88.9488 40.7562 92.7676 27.4671 93.6839 23.3432C96.4229 17.8653 93.5523 17.8443 93.5314 17.8443L96.1277 16.928C98.7241 16.0117 95.2114 10.9715 95.2114 10.9715C95.2114 10.9715 81.3122 8.52763 75.0495 8.98629C68.7869 9.44494 67.8706 13.874 68.1757 17.0816C68.4808 20.2892 72.7582 24.8717 73.3694 28.537C72.3006 30.9808 73.522 42.8949 73.522 42.8949C69.098 40.8968 67.8736 32.7636 67.732 31.7057C67.731 31.6977 67.72 31.6987 67.72 31.7067C67.727 32.4565 67.6303 36.5535 64.663 34.1884C61.4045 31.592 43.0752 17.7426 33.961 19.2193C37.7798 19.5244 55.3453 42.1311 55.0402 43.9638C54.9076 44.7584 53.8846 45.1513 52.7688 45.3407C52.7638 45.3417 52.7609 45.3457 52.7619 45.3507C52.8586 46.0866 53.2135 46.4126 53.5894 46.4056C54.2764 46.3927 59.4044 46.4295 61.3028 50.2264C63.3399 54.2995 64.5613 55.9287 62.6778 56.4891C60.7943 57.0494 46.6707 55.5059 34.8783 59.8492C19.0088 65.6941 10.0361 76.5822 6.62109 81.2335C9.11578 81.3093 17.1034 81.8697 24.1866 87.9538C32.919 95.4559 33.8433 105.827 33.949 108.775C33.96 109.094 34.2152 109.349 34.5343 109.364C43.5588 109.763 52.5844 110.162 61.6089 110.561C61.9559 110.608 64.8953 111.059 66.2932 113.666C67.1955 115.351 67.2235 117.419 66.4966 118.656C64.8305 121.494 52.0121 120.154 52.2912 120.183C51.6501 127.399 53.8696 132.158 55.0402 134.236C59.0095 141.281 67.2105 146.411 69.2455 144.928C69.5716 144.691 69.8577 144.196 69.8568 143.705C69.8508 141.968 66.2334 141.469 66.038 139.887C65.8804 138.604 68.0161 136.958 70.0093 136.374C74.874 134.948 83.094 137.8 84.6723 145.386C85.799 150.799 86.4541 156.944 80.4467 161.22C75.0286 165.077 69.8627 166.797 65.7837 167.737C61.1553 168.804 56.8569 169.74 51.7289 168.227C50.2233 167.783 49.0258 167.239 48.2092 166.823C45.7594 165.208 42.6315 162.708 39.8168 158.979C33.596 150.74 32.9459 141.868 32.8921 138.206C31.3456 140.13 28.495 143.147 24.0331 145.385C17.3187 148.751 11.0312 148.31 8.45272 147.981L10.4379 151.952C18.0247 163.255 49.0816 201.951 61.3018 200.983C65.6551 200.638 69.3861 199.239 69.3861 199.239C71.9028 198.126 73.7404 196.689 74.9379 195.592C76.2071 194.318 78.9232 191.986 82.048 192.39C82.2434 192.415 82.4419 192.451 82.6433 192.499C87.1889 194.563 91.3647 197.818 96.2793 198.691C101.676 199.649 108.409 198.355 115.627 193.891C115.664 193.867 116.166 193.568 116.726 193.177C119.724 191.086 125.26 185.883 135.229 167.772C138.242 162.298 142.034 154.964 145.972 146.032C148.161 139.955 150.35 133.88 152.539 127.804C152.946 126.48 153.354 125.157 153.762 123.833C153.972 123.111 154.142 122.488 154.271 122C154.393 121.538 154.692 120.39 155.001 118.979C155.132 118.382 155.214 117.971 155.255 117.757C155.305 117.504 155.386 117.086 155.476 116.551C155.681 115.327 155.779 114.394 155.805 114.14C155.805 114.14 155.862 113.608 155.898 113.056C156.455 104.534 155.38 88.921 145.209 75.6838Z" fill="#9EFF00"/>
<path d="M125.763 108.525C125.763 108.525 135.043 107.442 142.26 113.169C148.756 118.324 140.16 109.959 140.193 107.443C140.243 103.508 143.279 98.3431 140.835 96.9173C138.391 95.4915 134.521 93.251 131.874 98.7499C131.874 104.249 131.874 104.249 131.874 104.249C131.874 104.249 127.598 105.063 125.764 107.507C123.929 109.951 125.763 108.525 125.763 108.525Z" fill="#171515"/>
<path d="M88.2636 113.724C88.2636 113.724 93.3547 107.004 102.927 108.633C102.927 108.633 108.426 108.022 101.094 105.374H98.8536C98.8536 105.374 100.891 101.708 99.4648 98.2464C98.039 94.7845 91.9299 95.3947 90.9109 98.2464C89.8929 101.098 90.2997 104.56 91.3187 106.189C92.3367 107.818 88.2636 109.041 86.6344 113.724C85.0052 118.408 88.2636 113.724 88.2636 113.724Z" fill="#171515"/>
<path d="M103.318 120.994C103.318 120.994 114.52 127.307 123.48 119.771C127.553 117.327 121.851 123.469 121.851 123.469C121.851 123.469 122.259 139.526 117.575 138.1C112.89 136.675 109.429 134.842 108.003 126.696C108.003 126.696 99.0539 119.323 103.318 120.994Z" fill="#171515"/>
<path d="M92.7644 54.9456C91.9488 53.6165 87.0481 55.6744 82.4546 56.7782C77.9857 57.853 71.3711 58.6098 62.521 56.7782C54.8834 60.4444 50.3018 60.1383 45.4142 62.8883C40.5265 65.6372 28.1079 74.1343 30.7511 75.1075C34.6048 76.5273 54.1466 62.304 71.6862 61.972C75.2487 61.9042 78.0974 62.4236 79.58 62.7457C80.7197 62.5363 82.322 62.2013 84.2105 61.6668C89.2288 60.247 90.498 59.0535 90.9308 58.6118C91.7354 57.7922 93.3118 55.8379 92.7644 54.9456Z" fill="white"/>
<path d="M7.82163 89.794C7.2852 89.6245 6.69394 89.79 6.33599 90.2237C6.21235 90.3733 6.10865 90.5368 6.03088 90.7163C6.02889 90.7202 6.02689 90.7252 6.0249 90.7292C5.75469 91.3683 6.0239 92.1072 6.62314 92.4562C13.5159 96.4744 18.1354 103.006 18.1354 110.382C18.1354 117.624 12.8848 122.572 6.20138 126.606C5.51838 127.018 5.30301 127.918 5.75169 128.577C5.81251 128.667 5.87633 128.756 5.94314 128.844C6.30906 129.328 6.94021 129.524 7.51453 129.331C17.4574 126.004 23.2215 119.592 23.2215 110.382C23.2245 101.024 18.0227 93.0235 7.82163 89.794Z" fill="white"/>
<path d="M0.0252983 109.05C-0.226962 115.741 1.39329 122.336 5.5172 122.492C9.64112 122.647 13.7311 116.541 13.9834 109.85C14.2356 103.158 9.64112 96.9863 5.5172 96.8308C1.39329 96.6752 0.277559 102.359 0.0252983 109.05Z" fill="white"/>
</svg>
