<svg width="28" height="28" viewBox="0 0 28 28" fill="none" xmlns="http://www.w3.org/2000/svg">
<path d="M23 0H5C2.23858 0 0 2.23858 0 5V23C0 25.7614 2.23858 28 5 28H23C25.7614 28 28 25.7614 28 23V5C28 2.23858 25.7614 0 23 0Z" fill="white"/>
<path d="M20.9562 8.08465C20.536 7.62677 20.0246 7.26205 19.4548 7.01402C18.885 6.76599 18.2696 6.64016 17.6482 6.64465C16.7045 6.64099 15.7876 6.95836 15.0482 7.54465C14.6472 7.85909 14.2936 8.22955 13.9982 8.64465C13.7033 8.22966 13.3504 7.8592 12.9502 7.54465C12.2107 6.95836 11.2938 6.64099 10.3502 6.64465C9.72926 6.64058 9.11439 6.76662 8.54516 7.01463C7.97593 7.26265 7.46496 7.62715 7.04516 8.08465C6.17965 9.05416 5.7112 10.3142 5.73316 11.6136C5.77063 13.1122 6.35379 14.5456 7.37316 15.6446C8.63412 17.037 10.0052 18.3255 11.4732 19.4976C12.0422 19.9826 12.6862 20.5316 13.3562 21.1176C13.5331 21.2723 13.7601 21.3575 13.9952 21.3575C14.2302 21.3575 14.4572 21.2723 14.6342 21.1176C15.3032 20.5326 15.9492 19.9826 16.5182 19.4976C17.9893 18.326 19.3634 17.0374 20.6272 15.6446C21.6459 14.5464 22.2291 13.1142 22.2672 11.6166C22.2902 10.3163 21.822 9.05508 20.9562 8.08465V8.08465Z" stroke="#171515"/>
</svg>

