<svg width="28" height="29" viewBox="0 0 28 29" fill="none" xmlns="http://www.w3.org/2000/svg">
<path d="M23 0.979248H5C2.23858 0.979248 0 3.21395 0 5.9706V23.9395C0 26.6961 2.23858 28.9308 5 28.9308H23C25.7614 28.9308 28 26.6961 28 23.9395V5.9706C28 3.21395 25.7614 0.979248 23 0.979248Z" fill="white"/>
<path d="M13.0481 8.7369C13.7113 9.38119 14.2277 10.1605 14.5623 11.0217C14.8969 11.883 15.0417 12.8061 14.9871 13.7283C14.9839 14.0105 15.0821 14.2845 15.2639 14.5006C15.4457 14.7167 15.6991 14.8606 15.9781 14.9062C16.0399 14.9236 16.104 14.9306 16.1681 14.9272C16.4779 14.9288 16.7758 14.8081 16.9969 14.5913C17.2179 14.3746 17.3442 14.0794 17.3481 13.7702V13.6015C17.3481 13.5176 17.3481 13.3279 17.3691 13.1173C17.3698 13.0762 17.3825 13.0362 17.4056 13.0022C17.4288 12.9682 17.4614 12.9417 17.4995 12.926C17.5375 12.9103 17.5794 12.906 17.6198 12.9138C17.6603 12.9215 17.6976 12.9409 17.7271 12.9696C18.8419 14.1642 19.4727 15.7295 19.4971 17.362C19.4732 18.089 19.3044 18.8039 19.0005 19.465C18.6966 20.1261 18.2637 20.7201 17.7271 21.2123C16.6408 22.281 15.1841 22.8912 13.6591 22.9163C12.1362 22.8814 10.683 22.2726 9.59111 21.2123C9.05455 20.7201 8.62166 20.1261 8.31775 19.465C8.01384 18.8039 7.845 18.089 7.82111 17.362C7.82111 15.1947 9.14911 13.6803 10.3081 12.3706C11.3614 11.3645 12.107 10.0805 12.4581 8.66802C12.4617 8.63072 12.4756 8.59517 12.4985 8.56543C12.5213 8.53569 12.552 8.51296 12.5872 8.49984C12.6223 8.48672 12.6605 8.48374 12.6973 8.49124C12.734 8.49874 12.7679 8.51641 12.7951 8.54224L13.0481 8.7369ZM11.7631 6.96996C11.6922 6.96829 11.622 6.98486 11.5593 7.01808C11.4966 7.05129 11.4435 7.10004 11.4051 7.15963C11.3211 7.30738 11.4471 7.62283 11.5951 8.02214C11.8951 8.92657 10.9841 10.3791 9.69511 11.8305C8.49511 13.1982 6.99512 14.8813 6.99512 17.3849C7.06195 19.1091 7.79507 20.7405 9.0407 21.9368C10.2863 23.133 11.9476 23.8013 13.6761 23.8013C15.4046 23.8013 17.0659 23.133 18.3115 21.9368C19.5571 20.7405 20.2903 19.1091 20.3571 17.3849C20.342 16.306 20.0928 15.2432 19.6267 14.2697C19.1606 13.2962 18.4886 12.4351 17.6571 11.7457L17.4461 11.577C17.3525 11.4961 17.2329 11.4515 17.1091 11.4512C17.011 11.4508 16.9149 11.479 16.8326 11.5321C16.7502 11.5853 16.685 11.6612 16.6451 11.7507C16.5681 12.3721 16.526 12.9973 16.5191 13.6234V13.7712C16.5197 13.8155 16.5113 13.8595 16.4946 13.9006C16.4778 13.9416 16.453 13.9789 16.4216 14.0103C16.3902 14.0416 16.3528 14.0664 16.3117 14.0831C16.2706 14.0998 16.2265 14.1081 16.1821 14.1076H16.1191C16.035 14.0928 15.9588 14.0488 15.9039 13.9835C15.849 13.9181 15.819 13.8355 15.8191 13.7502C15.8774 12.71 15.7098 11.6696 15.3279 10.7C14.9459 9.7305 14.3586 8.85482 13.6061 8.13295C13.1191 7.57353 12.4782 7.16915 11.7631 6.96996Z" fill="#171515"/>
</svg>
