<svg width="27" height="28" viewBox="0 0 27 28" fill="none" xmlns="http://www.w3.org/2000/svg">
<path d="M21.6064 6.58598C21.138 6.10243 20.5819 5.71885 19.9698 5.45714C19.3577 5.19543 18.7016 5.06073 18.039 5.06073C17.3765 5.06073 16.7204 5.19543 16.1083 5.45714C15.4962 5.71885 14.94 6.10243 14.4716 6.58598L13.4996 7.58905L12.5275 6.58598C11.5813 5.6097 10.2981 5.06124 8.96008 5.06124C7.62205 5.06124 6.33883 5.6097 5.3927 6.58598C4.44657 7.56226 3.91504 8.88638 3.91504 10.267C3.91504 11.6477 4.44657 12.9718 5.3927 13.9481L6.36479 14.9512L13.4996 22.3133L20.6343 14.9512L21.6064 13.9481C22.075 13.4648 22.4468 12.8909 22.7004 12.2593C22.954 11.6277 23.0846 10.9507 23.0846 10.267C23.0846 9.58336 22.954 8.90638 22.7004 8.27477C22.4468 7.64316 22.075 7.0693 21.6064 6.58598V6.58598Z" stroke="#9EFF00" stroke-width="2" stroke-linecap="round" stroke-linejoin="round"/>
</svg>
