<svg width="22" height="20" viewBox="0 0 22 20" fill="none" xmlns="http://www.w3.org/2000/svg">
<path fill-rule="evenodd" clip-rule="evenodd" d="M2.4992 9.67359C2.46937 9.75663 2.46426 9.84655 2.4845 9.93243C2.50474 10.0183 2.54946 10.0965 2.61323 10.1575C2.67701 10.2185 2.7571 10.2596 2.84381 10.276C2.93052 10.2924 3.02011 10.2833 3.10173 10.2497C3.39566 10.4934 3.74076 10.7737 4.18234 11.0827C4.16143 11.1701 4.16687 11.2618 4.19799 11.3461C4.2291 11.4305 4.2845 11.5037 4.35718 11.5566C4.42987 11.6095 4.51659 11.6397 4.6064 11.6433C4.69622 11.647 4.78511 11.624 4.86187 11.5772C5.17364 11.7953 5.53756 12.05 5.93082 12.3442C5.91586 12.4294 5.92555 12.5172 5.95873 12.5972C5.99192 12.6772 6.04723 12.746 6.11817 12.7956C6.18911 12.8453 6.27273 12.8737 6.35923 12.8774C6.44573 12.8812 6.53152 12.8602 6.60651 12.817C6.94378 13.053 7.30388 13.286 7.6933 13.5585C7.67306 13.6449 7.67919 13.7354 7.71088 13.8183C7.74257 13.9012 7.79837 13.9727 7.8711 14.0236C7.94382 14.0745 8.03012 14.1024 8.11887 14.1038C8.20762 14.1052 8.29474 14.0799 8.369 14.0313L9.45962 14.7944C9.44288 14.8801 9.45136 14.9688 9.48404 15.0498C9.51672 15.1307 9.57219 15.2005 9.64373 15.2505C9.71526 15.3006 9.79979 15.3288 9.88705 15.3318C9.97431 15.3347 10.0605 15.3123 10.1353 15.2672C10.51 15.5358 10.9028 15.7783 11.3108 15.9931C11.3071 16.0834 11.3305 16.1728 11.3781 16.2496C11.4257 16.3265 11.4953 16.3873 11.5778 16.4242C11.6604 16.4612 11.752 16.4725 11.8411 16.4568C11.9301 16.4411 12.0124 16.399 12.0773 16.3361C12.5071 16.5094 12.9492 16.6503 13.4001 16.7575C13.4145 16.848 13.4561 16.9319 13.5193 16.9981C13.5825 17.0644 13.6644 17.1099 13.754 17.1287C13.8436 17.1474 13.9369 17.1385 14.0213 17.1031C14.1058 17.0677 14.1775 17.0075 14.227 16.9304C14.6736 17.0108 15.1243 17.0668 15.5771 17.0982C15.6062 17.1819 15.6593 17.2551 15.7297 17.3089C15.8002 17.3626 15.8848 17.3945 15.9732 17.4005C16.0616 17.4065 16.1498 17.3864 16.2269 17.3428C16.304 17.2991 16.3665 17.2337 16.4068 17.1548C16.8637 17.1655 17.3244 17.1745 17.7736 17.1642C17.8099 17.2435 17.869 17.3102 17.9432 17.356C18.0175 17.4017 18.1037 17.4244 18.1908 17.4212C18.278 17.4179 18.3622 17.3889 18.4329 17.3379C18.5036 17.2868 18.5575 17.2159 18.588 17.1341C21.5052 17.0251 22.0992 14.4651 20.0544 13.7111C16.1567 12.2605 15.2365 9.75974 13.4014 6.32874C13.0265 5.62097 11.5536 6.56373 11.5149 7.89103C9.90936 8.72111 6.79983 5.92457 7.41267 5.15608C7.66343 4.89003 7.80312 4.53826 7.80321 4.17266C7.80331 3.80706 7.66379 3.45523 7.41317 3.18905C7.16255 2.92286 6.81975 2.76243 6.45481 2.74052C6.08987 2.71861 5.73033 2.83688 5.44967 3.07117C3.92677 4.5373 2.68372 6.26861 1.78138 8.18029C1.64192 8.56958 2.26477 9.39301 2.4992 9.67359ZM6.04521 3.73996C6.48018 3.36755 7.31719 3.85656 6.69855 4.60372C5.26843 6.42668 10.0117 10.2145 12.2352 8.50122C12.6335 8.17997 12.1739 7.51052 12.7852 7.10696C13.1906 7.85505 13.536 8.52232 13.8657 9.10094L13.1861 9.221C13.0685 9.24176 12.964 9.30838 12.8956 9.40619C12.8271 9.504 12.8003 9.62499 12.8211 9.74255C12.8419 9.8601 12.9085 9.96459 13.0063 10.033C13.1041 10.1015 13.2251 10.1283 13.3427 10.1075L14.3582 9.9281C14.4898 10.1557 14.6203 10.3826 14.7479 10.5875L14.1303 10.6966C14.0128 10.7174 13.9083 10.784 13.8398 10.8818C13.7714 10.9796 13.7446 11.1006 13.7654 11.2182C13.7861 11.3357 13.8528 11.4402 13.9506 11.5087C14.0484 11.5771 14.1694 11.6039 14.2869 11.5831L15.2985 11.4044C16.7951 13.6896 19.5252 14.4587 20.2225 14.9277C17.6725 15.3101 13.8654 14.8897 11.7102 13.3842C9.83699 12.0604 4.22176 8.49983 3.48131 6.87848C4.2152 5.73922 5.07527 4.68639 6.04521 3.73996ZM2.95529 7.7647C4.10245 9.49195 9.14502 12.657 11.1976 14.0933C13.7173 15.8564 17.1681 16.0655 20.1285 15.8158C18.303 16.8208 12.9343 16.4498 10.8164 14.638C8.91968 13.3134 3.32931 9.77276 2.68966 8.31949C2.76753 8.12963 2.85621 7.9444 2.95529 7.7647Z" fill="#171515"/>
</svg>
